<svg xmlns="http://www.w3.org/2000/svg" width="420" height="360" viewBox="0 0 420 360" fill="none">
  <defs>
    <linearGradient id="pot" x1="130" y1="268" x2="282" y2="340" gradientUnits="userSpaceOnUse">
      <stop stop-color="#EEE9DE"/>
      <stop offset=".52" stop-color="#C9C1B4"/>
      <stop offset="1" stop-color="#9E988E"/>
    </linearGradient>
    <linearGradient id="leaf1" x1="0" y1="0" x2="1" y2="1">
      <stop stop-color="#B8C4AA"/>
      <stop offset="1" stop-color="#71836B"/>
    </linearGradient>
    <linearGradient id="leaf2" x1="0" y1="0" x2="1" y2="1">
      <stop stop-color="#9FAF94"/>
      <stop offset="1" stop-color="#596D58"/>
    </linearGradient>
    <linearGradient id="leaf3" x1="0" y1="0" x2="1" y2="1">
      <stop stop-color="#C5CEB9"/>
      <stop offset="1" stop-color="#7C9074"/>
    </linearGradient>
    <filter id="shadow" x="-30%" y="-30%" width="160%" height="180%">
      <feGaussianBlur in="SourceAlpha" stdDeviation="6"/>
      <feOffset dy="8"/>
      <feComponentTransfer><feFuncA type="linear" slope=".18"/></feComponentTransfer>
      <feMerge><feMergeNode/><feMergeNode in="SourceGraphic"/></feMerge>
    </filter>
  </defs>

  <ellipse cx="211" cy="337" rx="106" ry="15" fill="#11160F" opacity=".16"/>

  <g filter="url(#shadow)">
    <path d="M205 288C195 238 184 194 170 145" stroke="#697B63" stroke-width="5" stroke-linecap="round"/>
    <path d="M213 289C221 230 237 177 264 121" stroke="#64765F" stroke-width="5" stroke-linecap="round"/>
    <path d="M210 291C207 233 210 170 218 91" stroke="#819177" stroke-width="4.5" stroke-linecap="round"/>
    <path d="M206 289C184 244 158 210 121 177" stroke="#71846C" stroke-width="4" stroke-linecap="round"/>
    <path d="M214 290C238 252 270 219 312 194" stroke="#71846C" stroke-width="4" stroke-linecap="round"/>

    <ellipse cx="160" cy="154" rx="21" ry="42" transform="rotate(-31 160 154)" fill="url(#leaf1)"/>
    <ellipse cx="184" cy="194" rx="18" ry="38" transform="rotate(26 184 194)" fill="url(#leaf2)"/>
    <ellipse cx="135" cy="190" rx="18" ry="36" transform="rotate(-49 135 190)" fill="url(#leaf3)"/>
    <ellipse cx="109" cy="171" rx="16" ry="33" transform="rotate(-59 109 171)" fill="url(#leaf2)"/>

    <ellipse cx="223" cy="110" rx="19" ry="39" transform="rotate(8 223 110)" fill="url(#leaf3)"/>
    <ellipse cx="203" cy="151" rx="18" ry="36" transform="rotate(-24 203 151)" fill="url(#leaf1)"/>
    <ellipse cx="237" cy="168" rx="19" ry="39" transform="rotate(31 237 168)" fill="url(#leaf2)"/>

    <ellipse cx="276" cy="131" rx="19" ry="40" transform="rotate(37 276 131)" fill="url(#leaf1)"/>
    <ellipse cx="255" cy="188" rx="18" ry="36" transform="rotate(-34 255 188)" fill="url(#leaf3)"/>
    <ellipse cx="300" cy="202" rx="17" ry="34" transform="rotate(57 300 202)" fill="url(#leaf2)"/>
    <ellipse cx="325" cy="191" rx="15" ry="31" transform="rotate(67 325 191)" fill="url(#leaf1)"/>

    <path d="M137 281C142 265 159 255 179 255H246C266 255 284 265 289 281L276 329H149L137 281Z" fill="url(#pot)"/>
    <ellipse cx="213" cy="279" rx="77" ry="25" fill="#D8D0C4"/>
    <ellipse cx="213" cy="278" rx="61" ry="16" fill="#817C72" opacity=".55"/>
    <path d="M153 318C185 326 238 327 271 318" stroke="#F5F0E7" stroke-width="3" opacity=".48" stroke-linecap="round"/>
    <circle cx="285" cy="221" r="6" fill="#B79A67" opacity=".72"/>
  </g>
</svg>